<?xml version="1.0" encoding="UTF-8"?>
<svg width="273px" height="273px" viewBox="0 0 273 273" version="1.1" xmlns="http://www.w3.org/2000/svg" xmlns:xlink="http://www.w3.org/1999/xlink">
    <!-- Generator: Sketch 44.1 (41455) - http://www.bohemiancoding.com/sketch -->
    <title>logo</title>
    <desc>Created with Sketch.</desc>
    <defs></defs>
    <g id="Screens" stroke="none" stroke-width="1" fill="none" fill-rule="evenodd">
        <g id="logo">
            <g id="Group-Copy" transform="translate(14.000000, 0.000000)">
                <circle id="Oval-9" fill="#F8CC51" cx="122.285714" cy="166.285714" r="106.285714"></circle>
                <g id="Group-6-Copy-3" fill="#232526">
                    <path d="M98.8752417,167.397992 C98.8752417,167.397992 79.2850955,162.738125 87.1886008,125.080967 C95.0921061,87.4238095 116.972371,43.4620868 116.97237,0.682472718 C116.97237,0.682472718 158.782922,73.3930035 163.070292,122.44566 C167.357661,171.498316 137.108769,168.788148 137.108769,168.788148 C137.108769,168.788148 144.313446,158.608636 142.063764,137.097465 C142.063764,137.097465 136.516369,173.182431 121.214732,168.78815 C105.913095,164.393869 105.033392,123.50325 105.033392,123.50325 C105.033392,123.50325 100.586234,151.990417 109.353192,168.788148 C102.963271,168.788148 98.8752417,167.397992 98.8752417,167.397992 Z" id="Path-2"></path>
                    <path d="M124.281464,129.550115 C124.281464,129.550115 142.056644,145.439977 124.281465,169.075787 C124.281465,169.075787 103.912505,158.039649 119.375512,124.653833 C122.875018,127.745433 124.281464,129.550115 124.281464,129.550115 Z" id="Path-3"></path>
                    <path d="M82.9723945,164.936639 C82.9723945,164.936639 5.29349822,165.214476 0.386277323,187.482463 C-4.52094357,209.750449 62.8268665,211.536803 62.8268665,211.536803 C62.8268665,211.536803 134.424026,218.326018 191.505108,212.505673 C248.586189,206.685328 245.724091,188.317757 245.724091,188.317757 C245.724091,188.317757 253.361121,168.487976 162.026028,163.953521 C162.026028,163.953521 242.625,176.459961 223.762274,191.922524 C223.762274,191.922524 222.485851,199.83912 152.034604,198.692149 C152.034604,198.692149 131.136456,195.746356 123.88378,178.525756 C123.88378,178.525756 128.524635,196.955662 84.8959536,198.989577 C41.2672723,201.023492 34.3506828,197.343923 34.3506828,197.343923 C34.3506828,197.343923 3.99600736,185.113021 39.5334851,173.355911 C79.596548,164.936639 82.9723945,164.936639 82.9723945,164.936639 Z" id="Path-4"></path>
                    <path d="M232.570282,197.239503 C232.570282,197.239503 206.113575,267.916815 134.432241,272.014778 C134.432241,272.014778 41.5861747,287.08741 1.56808943,194.596314 C1.56808943,194.596314 35.0111529,209.405734 85.7223462,205.3519 C85.7223462,205.3519 37.8683444,208.475811 43.4039544,226.795296 C43.4039544,226.795296 47.5679234,250.891338 116.124699,258.333875 C184.681475,265.776412 232.570282,197.239503 232.570282,197.239503 Z" id="Path-24"></path>
                    <path d="M245.740625,188.270685 C245.740625,188.270685 228.71369,257.53631 133.762351,271.887649 C133.762351,271.887649 19.583631,255.072917 24.5058036,208.203869 L216.179911,203.890625 L245.740625,188.270685 Z" id="Path-25"></path>
                </g>
            </g>
        </g>
    </g>
</svg>